<svg height="511pt" viewBox="0 1 511 511.999" width="511pt" xmlns="http://www.w3.org/2000/svg"><path d="m432.082031 259.40625c.570313-2.320312.59375-4.785156-.015625-7.210938-.933594-24.039062-10.730468-46.507812-27.839844-63.613281-18.007812-18.007812-41.945312-27.921875-67.40625-27.921875h-281.15625c-30.414062 0-55.164062 24.746094-55.164062 55.164063v80.332031c0 30.417969 24.746094 55.164062 55.164062 55.164062h281.15625c25.464844 0 49.402344-9.917968 67.410157-27.921874 17.195312-17.199219 27.003906-39.808594 27.851562-63.992188zm0 0"/><path d="m279.519531 112.460938v-49.261719c.003907-16.882813-6.570312-32.753907-18.507812-44.6875-11.9375-11.9375-27.804688-18.511719-44.6875-18.511719-16.882813 0-32.75 6.574219-44.6875 18.511719-11.9375 11.933593-18.511719 27.804687-18.511719 44.683593v67.464844h126.394531zm-96.394531-14.996094v-34.269532c0-8.867187 3.453125-17.203124 9.722656-23.472656 6.269532-6.269531 14.609375-9.722656 23.476563-9.722656 8.867187 0 17.207031 3.453125 23.476562 9.722656 6.269531 6.269532 9.722657 14.605469 9.722657 23.476563v34.265625zm0 0"/><path d="m455.445312 215.378906 22.054688-22.054687c5.859375-5.859375 5.859375-15.355469-.003906-21.214844l-56.800782-56.800781c-5.855468-5.855469-15.351562-5.855469-21.207031 0l-22.058593 22.054687c17.878906 6.105469 34.261718 16.253907 48.007812 30.003907 13.75 13.75 23.902344 30.136718 30.007812 48.011718zm0 0"/><path d="m508.269531 435.695312-55.085937-132.996093c-6.222656 15.507812-15.574219 29.742187-27.742188 41.914062-16.878906 16.875-37.722656 28.339844-60.429687 33.535157l41.324219 99.769531c5.640624 13.609375 16.246093 24.214843 29.859374 29.851562 6.804688 2.820313 13.957032 4.230469 21.109376 4.230469 7.152343 0 14.304687-1.410156 21.109374-4.230469 28.105469-11.640625 41.496094-43.972656 29.855469-72.074219zm0 0"/></svg>